<svg width="512" height="512" viewBox="0 0 512 512" fill="none" xmlns="http://www.w3.org/2000/svg">
<g id="muela-favicon">
<path id="contorno-azul" d="M136.5 97.5C163.5 97.5 189 109.5 210 129C231 109.5 256.5 97.5 283.5 97.5C337.3 97.5 381 141.2 381 195C381 229.1 364.5 259.5 339 279C325.5 325.5 339 364.5 361.5 393C367.5 400.5 360 412.5 349.5 409.5C297 394.5 265.5 334.5 256.5 304.5H163.5C154.5 334.5 123 394.5 70.5 409.5C60 412.5 52.5 400.5 58.5 393C81 364.5 94.5 325.5 81 279C55.5 259.5 39 229.1 39 195C39 141.2 82.7 97.5 136.5 97.5Z" fill="#007BFF" stroke="#0056b3" stroke-width="12"/>
<path id="relleno-blanco" d="M141 109.5C165 109.5 187.5 118.5 207 136.5C226.5 118.5 249 109.5 273 109.5C318 109.5 355.5 147 355.5 192C355.5 222 342 247.5 321 264C310.5 303 321 336 339 358.5C343.5 364.5 337.5 373.5 330 372C286.5 360 259.5 309 252 285H162C154.5 309 127.5 360 84 372C76.5 373.5 70.5 364.5 75 358.5C93 336 103.5 303 93 264C72 247.5 58.5 222 58.5 192C58.5 147 96 109.5 141 109.5Z" fill="white"/>
<path id="brillo-1" d="M145.5 138C160.5 138 174 144 184.5 154.5" stroke="#66B2FF" stroke-width="12" stroke-linecap="round"/>
<path id="brillo-2" d="M276 138C291 138 304.5 144 315 154.5" stroke="#66B2FF" stroke-width="12" stroke-linecap="round"/>
</g>
</svg>